G04 #@! TF.GenerationSoftware,KiCad,Pcbnew,(5.0.0)*
G04 #@! TF.CreationDate,2018-11-03T02:43:51+01:00*
G04 #@! TF.ProjectId,GBPrinter Emulator Minimal,47425072696E74657220456D756C6174,rev?*
G04 #@! TF.SameCoordinates,Original*
G04 #@! TF.FileFunction,Soldermask,Bot*
G04 #@! TF.FilePolarity,Negative*
%FSLAX46Y46*%
G04 Gerber Fmt 4.6, Leading zero omitted, Abs format (unit mm)*
G04 Created by KiCad (PCBNEW (5.0.0)) date 11/03/18 02:43:51*
%MOMM*%
%LPD*%
G01*
G04 APERTURE LIST*
%ADD10C,0.100000*%
%ADD11C,1.000000*%
%ADD12R,3.000000X1.000000*%
%ADD13R,5.000000X1.000000*%
G04 APERTURE END LIST*
D10*
G04 #@! TO.C,*
G36*
X71699094Y-62559035D02*
X71723363Y-62562635D01*
X71747161Y-62568596D01*
X71770261Y-62576861D01*
X71792439Y-62587351D01*
X71813483Y-62599964D01*
X71833188Y-62614578D01*
X71851367Y-62631054D01*
X71867843Y-62649233D01*
X71882457Y-62668938D01*
X71895070Y-62689982D01*
X71905560Y-62712160D01*
X71913825Y-62735260D01*
X71919786Y-62759058D01*
X71923386Y-62783327D01*
X71924590Y-62807831D01*
X71924590Y-63307831D01*
X71923386Y-63332335D01*
X71919786Y-63356604D01*
X71913825Y-63380402D01*
X71905560Y-63403502D01*
X71895070Y-63425680D01*
X71882457Y-63446724D01*
X71867843Y-63466429D01*
X71851367Y-63484608D01*
X71833188Y-63501084D01*
X71813483Y-63515698D01*
X71792439Y-63528311D01*
X71770261Y-63538801D01*
X71747161Y-63547066D01*
X71723363Y-63553027D01*
X71699094Y-63556627D01*
X71674590Y-63557831D01*
X71174590Y-63557831D01*
X71150086Y-63556627D01*
X71125817Y-63553027D01*
X71102019Y-63547066D01*
X71078919Y-63538801D01*
X71056741Y-63528311D01*
X71035697Y-63515698D01*
X71015992Y-63501084D01*
X70997813Y-63484608D01*
X70981337Y-63466429D01*
X70966723Y-63446724D01*
X70954110Y-63425680D01*
X70943620Y-63403502D01*
X70935355Y-63380402D01*
X70929394Y-63356604D01*
X70925794Y-63332335D01*
X70924590Y-63307831D01*
X70924590Y-62807831D01*
X70925794Y-62783327D01*
X70929394Y-62759058D01*
X70935355Y-62735260D01*
X70943620Y-62712160D01*
X70954110Y-62689982D01*
X70966723Y-62668938D01*
X70981337Y-62649233D01*
X70997813Y-62631054D01*
X71015992Y-62614578D01*
X71035697Y-62599964D01*
X71056741Y-62587351D01*
X71078919Y-62576861D01*
X71102019Y-62568596D01*
X71125817Y-62562635D01*
X71150086Y-62559035D01*
X71174590Y-62557831D01*
X71674590Y-62557831D01*
X71699094Y-62559035D01*
X71699094Y-62559035D01*
G37*
D11*
X71424590Y-63057831D03*
G04 #@! TD*
D10*
G04 #@! TO.C,2*
G36*
X72799094Y-62559035D02*
X72823363Y-62562635D01*
X72847161Y-62568596D01*
X72870261Y-62576861D01*
X72892439Y-62587351D01*
X72913483Y-62599964D01*
X72933188Y-62614578D01*
X72951367Y-62631054D01*
X72967843Y-62649233D01*
X72982457Y-62668938D01*
X72995070Y-62689982D01*
X73005560Y-62712160D01*
X73013825Y-62735260D01*
X73019786Y-62759058D01*
X73023386Y-62783327D01*
X73024590Y-62807831D01*
X73024590Y-63307831D01*
X73023386Y-63332335D01*
X73019786Y-63356604D01*
X73013825Y-63380402D01*
X73005560Y-63403502D01*
X72995070Y-63425680D01*
X72982457Y-63446724D01*
X72967843Y-63466429D01*
X72951367Y-63484608D01*
X72933188Y-63501084D01*
X72913483Y-63515698D01*
X72892439Y-63528311D01*
X72870261Y-63538801D01*
X72847161Y-63547066D01*
X72823363Y-63553027D01*
X72799094Y-63556627D01*
X72774590Y-63557831D01*
X72274590Y-63557831D01*
X72250086Y-63556627D01*
X72225817Y-63553027D01*
X72202019Y-63547066D01*
X72178919Y-63538801D01*
X72156741Y-63528311D01*
X72135697Y-63515698D01*
X72115992Y-63501084D01*
X72097813Y-63484608D01*
X72081337Y-63466429D01*
X72066723Y-63446724D01*
X72054110Y-63425680D01*
X72043620Y-63403502D01*
X72035355Y-63380402D01*
X72029394Y-63356604D01*
X72025794Y-63332335D01*
X72024590Y-63307831D01*
X72024590Y-62807831D01*
X72025794Y-62783327D01*
X72029394Y-62759058D01*
X72035355Y-62735260D01*
X72043620Y-62712160D01*
X72054110Y-62689982D01*
X72066723Y-62668938D01*
X72081337Y-62649233D01*
X72097813Y-62631054D01*
X72115992Y-62614578D01*
X72135697Y-62599964D01*
X72156741Y-62587351D01*
X72178919Y-62576861D01*
X72202019Y-62568596D01*
X72225817Y-62562635D01*
X72250086Y-62559035D01*
X72274590Y-62557831D01*
X72774590Y-62557831D01*
X72799094Y-62559035D01*
X72799094Y-62559035D01*
G37*
D11*
X72524590Y-63057831D03*
G04 #@! TD*
D10*
G04 #@! TO.C,*
G36*
X71699094Y-61212835D02*
X71723363Y-61216435D01*
X71747161Y-61222396D01*
X71770261Y-61230661D01*
X71792439Y-61241151D01*
X71813483Y-61253764D01*
X71833188Y-61268378D01*
X71851367Y-61284854D01*
X71867843Y-61303033D01*
X71882457Y-61322738D01*
X71895070Y-61343782D01*
X71905560Y-61365960D01*
X71913825Y-61389060D01*
X71919786Y-61412858D01*
X71923386Y-61437127D01*
X71924590Y-61461631D01*
X71924590Y-61961631D01*
X71923386Y-61986135D01*
X71919786Y-62010404D01*
X71913825Y-62034202D01*
X71905560Y-62057302D01*
X71895070Y-62079480D01*
X71882457Y-62100524D01*
X71867843Y-62120229D01*
X71851367Y-62138408D01*
X71833188Y-62154884D01*
X71813483Y-62169498D01*
X71792439Y-62182111D01*
X71770261Y-62192601D01*
X71747161Y-62200866D01*
X71723363Y-62206827D01*
X71699094Y-62210427D01*
X71674590Y-62211631D01*
X71174590Y-62211631D01*
X71150086Y-62210427D01*
X71125817Y-62206827D01*
X71102019Y-62200866D01*
X71078919Y-62192601D01*
X71056741Y-62182111D01*
X71035697Y-62169498D01*
X71015992Y-62154884D01*
X70997813Y-62138408D01*
X70981337Y-62120229D01*
X70966723Y-62100524D01*
X70954110Y-62079480D01*
X70943620Y-62057302D01*
X70935355Y-62034202D01*
X70929394Y-62010404D01*
X70925794Y-61986135D01*
X70924590Y-61961631D01*
X70924590Y-61461631D01*
X70925794Y-61437127D01*
X70929394Y-61412858D01*
X70935355Y-61389060D01*
X70943620Y-61365960D01*
X70954110Y-61343782D01*
X70966723Y-61322738D01*
X70981337Y-61303033D01*
X70997813Y-61284854D01*
X71015992Y-61268378D01*
X71035697Y-61253764D01*
X71056741Y-61241151D01*
X71078919Y-61230661D01*
X71102019Y-61222396D01*
X71125817Y-61216435D01*
X71150086Y-61212835D01*
X71174590Y-61211631D01*
X71674590Y-61211631D01*
X71699094Y-61212835D01*
X71699094Y-61212835D01*
G37*
D11*
X71424590Y-61711631D03*
G04 #@! TD*
D10*
G04 #@! TO.C,1*
G36*
X72799094Y-61212835D02*
X72823363Y-61216435D01*
X72847161Y-61222396D01*
X72870261Y-61230661D01*
X72892439Y-61241151D01*
X72913483Y-61253764D01*
X72933188Y-61268378D01*
X72951367Y-61284854D01*
X72967843Y-61303033D01*
X72982457Y-61322738D01*
X72995070Y-61343782D01*
X73005560Y-61365960D01*
X73013825Y-61389060D01*
X73019786Y-61412858D01*
X73023386Y-61437127D01*
X73024590Y-61461631D01*
X73024590Y-61961631D01*
X73023386Y-61986135D01*
X73019786Y-62010404D01*
X73013825Y-62034202D01*
X73005560Y-62057302D01*
X72995070Y-62079480D01*
X72982457Y-62100524D01*
X72967843Y-62120229D01*
X72951367Y-62138408D01*
X72933188Y-62154884D01*
X72913483Y-62169498D01*
X72892439Y-62182111D01*
X72870261Y-62192601D01*
X72847161Y-62200866D01*
X72823363Y-62206827D01*
X72799094Y-62210427D01*
X72774590Y-62211631D01*
X72274590Y-62211631D01*
X72250086Y-62210427D01*
X72225817Y-62206827D01*
X72202019Y-62200866D01*
X72178919Y-62192601D01*
X72156741Y-62182111D01*
X72135697Y-62169498D01*
X72115992Y-62154884D01*
X72097813Y-62138408D01*
X72081337Y-62120229D01*
X72066723Y-62100524D01*
X72054110Y-62079480D01*
X72043620Y-62057302D01*
X72035355Y-62034202D01*
X72029394Y-62010404D01*
X72025794Y-61986135D01*
X72024590Y-61961631D01*
X72024590Y-61461631D01*
X72025794Y-61437127D01*
X72029394Y-61412858D01*
X72035355Y-61389060D01*
X72043620Y-61365960D01*
X72054110Y-61343782D01*
X72066723Y-61322738D01*
X72081337Y-61303033D01*
X72097813Y-61284854D01*
X72115992Y-61268378D01*
X72135697Y-61253764D01*
X72156741Y-61241151D01*
X72178919Y-61230661D01*
X72202019Y-61222396D01*
X72225817Y-61216435D01*
X72250086Y-61212835D01*
X72274590Y-61211631D01*
X72774590Y-61211631D01*
X72799094Y-61212835D01*
X72799094Y-61212835D01*
G37*
D11*
X72524590Y-61711631D03*
G04 #@! TD*
D10*
G04 #@! TO.C,*
G36*
X71699094Y-59879335D02*
X71723363Y-59882935D01*
X71747161Y-59888896D01*
X71770261Y-59897161D01*
X71792439Y-59907651D01*
X71813483Y-59920264D01*
X71833188Y-59934878D01*
X71851367Y-59951354D01*
X71867843Y-59969533D01*
X71882457Y-59989238D01*
X71895070Y-60010282D01*
X71905560Y-60032460D01*
X71913825Y-60055560D01*
X71919786Y-60079358D01*
X71923386Y-60103627D01*
X71924590Y-60128131D01*
X71924590Y-60628131D01*
X71923386Y-60652635D01*
X71919786Y-60676904D01*
X71913825Y-60700702D01*
X71905560Y-60723802D01*
X71895070Y-60745980D01*
X71882457Y-60767024D01*
X71867843Y-60786729D01*
X71851367Y-60804908D01*
X71833188Y-60821384D01*
X71813483Y-60835998D01*
X71792439Y-60848611D01*
X71770261Y-60859101D01*
X71747161Y-60867366D01*
X71723363Y-60873327D01*
X71699094Y-60876927D01*
X71674590Y-60878131D01*
X71174590Y-60878131D01*
X71150086Y-60876927D01*
X71125817Y-60873327D01*
X71102019Y-60867366D01*
X71078919Y-60859101D01*
X71056741Y-60848611D01*
X71035697Y-60835998D01*
X71015992Y-60821384D01*
X70997813Y-60804908D01*
X70981337Y-60786729D01*
X70966723Y-60767024D01*
X70954110Y-60745980D01*
X70943620Y-60723802D01*
X70935355Y-60700702D01*
X70929394Y-60676904D01*
X70925794Y-60652635D01*
X70924590Y-60628131D01*
X70924590Y-60128131D01*
X70925794Y-60103627D01*
X70929394Y-60079358D01*
X70935355Y-60055560D01*
X70943620Y-60032460D01*
X70954110Y-60010282D01*
X70966723Y-59989238D01*
X70981337Y-59969533D01*
X70997813Y-59951354D01*
X71015992Y-59934878D01*
X71035697Y-59920264D01*
X71056741Y-59907651D01*
X71078919Y-59897161D01*
X71102019Y-59888896D01*
X71125817Y-59882935D01*
X71150086Y-59879335D01*
X71174590Y-59878131D01*
X71674590Y-59878131D01*
X71699094Y-59879335D01*
X71699094Y-59879335D01*
G37*
D11*
X71424590Y-60378131D03*
G04 #@! TD*
D10*
G04 #@! TO.C,2*
G36*
X72799094Y-59879335D02*
X72823363Y-59882935D01*
X72847161Y-59888896D01*
X72870261Y-59897161D01*
X72892439Y-59907651D01*
X72913483Y-59920264D01*
X72933188Y-59934878D01*
X72951367Y-59951354D01*
X72967843Y-59969533D01*
X72982457Y-59989238D01*
X72995070Y-60010282D01*
X73005560Y-60032460D01*
X73013825Y-60055560D01*
X73019786Y-60079358D01*
X73023386Y-60103627D01*
X73024590Y-60128131D01*
X73024590Y-60628131D01*
X73023386Y-60652635D01*
X73019786Y-60676904D01*
X73013825Y-60700702D01*
X73005560Y-60723802D01*
X72995070Y-60745980D01*
X72982457Y-60767024D01*
X72967843Y-60786729D01*
X72951367Y-60804908D01*
X72933188Y-60821384D01*
X72913483Y-60835998D01*
X72892439Y-60848611D01*
X72870261Y-60859101D01*
X72847161Y-60867366D01*
X72823363Y-60873327D01*
X72799094Y-60876927D01*
X72774590Y-60878131D01*
X72274590Y-60878131D01*
X72250086Y-60876927D01*
X72225817Y-60873327D01*
X72202019Y-60867366D01*
X72178919Y-60859101D01*
X72156741Y-60848611D01*
X72135697Y-60835998D01*
X72115992Y-60821384D01*
X72097813Y-60804908D01*
X72081337Y-60786729D01*
X72066723Y-60767024D01*
X72054110Y-60745980D01*
X72043620Y-60723802D01*
X72035355Y-60700702D01*
X72029394Y-60676904D01*
X72025794Y-60652635D01*
X72024590Y-60628131D01*
X72024590Y-60128131D01*
X72025794Y-60103627D01*
X72029394Y-60079358D01*
X72035355Y-60055560D01*
X72043620Y-60032460D01*
X72054110Y-60010282D01*
X72066723Y-59989238D01*
X72081337Y-59969533D01*
X72097813Y-59951354D01*
X72115992Y-59934878D01*
X72135697Y-59920264D01*
X72156741Y-59907651D01*
X72178919Y-59897161D01*
X72202019Y-59888896D01*
X72225817Y-59882935D01*
X72250086Y-59879335D01*
X72274590Y-59878131D01*
X72774590Y-59878131D01*
X72799094Y-59879335D01*
X72799094Y-59879335D01*
G37*
D11*
X72524590Y-60378131D03*
G04 #@! TD*
D10*
G04 #@! TO.C,1*
G36*
X72799094Y-58545835D02*
X72823363Y-58549435D01*
X72847161Y-58555396D01*
X72870261Y-58563661D01*
X72892439Y-58574151D01*
X72913483Y-58586764D01*
X72933188Y-58601378D01*
X72951367Y-58617854D01*
X72967843Y-58636033D01*
X72982457Y-58655738D01*
X72995070Y-58676782D01*
X73005560Y-58698960D01*
X73013825Y-58722060D01*
X73019786Y-58745858D01*
X73023386Y-58770127D01*
X73024590Y-58794631D01*
X73024590Y-59294631D01*
X73023386Y-59319135D01*
X73019786Y-59343404D01*
X73013825Y-59367202D01*
X73005560Y-59390302D01*
X72995070Y-59412480D01*
X72982457Y-59433524D01*
X72967843Y-59453229D01*
X72951367Y-59471408D01*
X72933188Y-59487884D01*
X72913483Y-59502498D01*
X72892439Y-59515111D01*
X72870261Y-59525601D01*
X72847161Y-59533866D01*
X72823363Y-59539827D01*
X72799094Y-59543427D01*
X72774590Y-59544631D01*
X72274590Y-59544631D01*
X72250086Y-59543427D01*
X72225817Y-59539827D01*
X72202019Y-59533866D01*
X72178919Y-59525601D01*
X72156741Y-59515111D01*
X72135697Y-59502498D01*
X72115992Y-59487884D01*
X72097813Y-59471408D01*
X72081337Y-59453229D01*
X72066723Y-59433524D01*
X72054110Y-59412480D01*
X72043620Y-59390302D01*
X72035355Y-59367202D01*
X72029394Y-59343404D01*
X72025794Y-59319135D01*
X72024590Y-59294631D01*
X72024590Y-58794631D01*
X72025794Y-58770127D01*
X72029394Y-58745858D01*
X72035355Y-58722060D01*
X72043620Y-58698960D01*
X72054110Y-58676782D01*
X72066723Y-58655738D01*
X72081337Y-58636033D01*
X72097813Y-58617854D01*
X72115992Y-58601378D01*
X72135697Y-58586764D01*
X72156741Y-58574151D01*
X72178919Y-58563661D01*
X72202019Y-58555396D01*
X72225817Y-58549435D01*
X72250086Y-58545835D01*
X72274590Y-58544631D01*
X72774590Y-58544631D01*
X72799094Y-58545835D01*
X72799094Y-58545835D01*
G37*
D11*
X72524590Y-59044631D03*
G04 #@! TD*
D10*
G04 #@! TO.C,*
G36*
X71699094Y-58545835D02*
X71723363Y-58549435D01*
X71747161Y-58555396D01*
X71770261Y-58563661D01*
X71792439Y-58574151D01*
X71813483Y-58586764D01*
X71833188Y-58601378D01*
X71851367Y-58617854D01*
X71867843Y-58636033D01*
X71882457Y-58655738D01*
X71895070Y-58676782D01*
X71905560Y-58698960D01*
X71913825Y-58722060D01*
X71919786Y-58745858D01*
X71923386Y-58770127D01*
X71924590Y-58794631D01*
X71924590Y-59294631D01*
X71923386Y-59319135D01*
X71919786Y-59343404D01*
X71913825Y-59367202D01*
X71905560Y-59390302D01*
X71895070Y-59412480D01*
X71882457Y-59433524D01*
X71867843Y-59453229D01*
X71851367Y-59471408D01*
X71833188Y-59487884D01*
X71813483Y-59502498D01*
X71792439Y-59515111D01*
X71770261Y-59525601D01*
X71747161Y-59533866D01*
X71723363Y-59539827D01*
X71699094Y-59543427D01*
X71674590Y-59544631D01*
X71174590Y-59544631D01*
X71150086Y-59543427D01*
X71125817Y-59539827D01*
X71102019Y-59533866D01*
X71078919Y-59525601D01*
X71056741Y-59515111D01*
X71035697Y-59502498D01*
X71015992Y-59487884D01*
X70997813Y-59471408D01*
X70981337Y-59453229D01*
X70966723Y-59433524D01*
X70954110Y-59412480D01*
X70943620Y-59390302D01*
X70935355Y-59367202D01*
X70929394Y-59343404D01*
X70925794Y-59319135D01*
X70924590Y-59294631D01*
X70924590Y-58794631D01*
X70925794Y-58770127D01*
X70929394Y-58745858D01*
X70935355Y-58722060D01*
X70943620Y-58698960D01*
X70954110Y-58676782D01*
X70966723Y-58655738D01*
X70981337Y-58636033D01*
X70997813Y-58617854D01*
X71015992Y-58601378D01*
X71035697Y-58586764D01*
X71056741Y-58574151D01*
X71078919Y-58563661D01*
X71102019Y-58555396D01*
X71125817Y-58549435D01*
X71150086Y-58545835D01*
X71174590Y-58544631D01*
X71674590Y-58544631D01*
X71699094Y-58545835D01*
X71699094Y-58545835D01*
G37*
D11*
X71424590Y-59044631D03*
G04 #@! TD*
D12*
G04 #@! TO.C,*
X76762560Y-66118740D03*
X76762560Y-61038740D03*
X76762560Y-55958740D03*
X76762560Y-63578740D03*
X76762560Y-58498740D03*
G04 #@! TD*
D13*
G04 #@! TO.C,GBLink*
X66189860Y-59039825D03*
X66189860Y-61039825D03*
X66189860Y-63039825D03*
G04 #@! TD*
D10*
G04 #@! TO.C,*
G36*
X72092794Y-55459735D02*
X72117063Y-55463335D01*
X72140861Y-55469296D01*
X72163961Y-55477561D01*
X72186139Y-55488051D01*
X72207183Y-55500664D01*
X72226888Y-55515278D01*
X72245067Y-55531754D01*
X72261543Y-55549933D01*
X72276157Y-55569638D01*
X72288770Y-55590682D01*
X72299260Y-55612860D01*
X72307525Y-55635960D01*
X72313486Y-55659758D01*
X72317086Y-55684027D01*
X72318290Y-55708531D01*
X72318290Y-56208531D01*
X72317086Y-56233035D01*
X72313486Y-56257304D01*
X72307525Y-56281102D01*
X72299260Y-56304202D01*
X72288770Y-56326380D01*
X72276157Y-56347424D01*
X72261543Y-56367129D01*
X72245067Y-56385308D01*
X72226888Y-56401784D01*
X72207183Y-56416398D01*
X72186139Y-56429011D01*
X72163961Y-56439501D01*
X72140861Y-56447766D01*
X72117063Y-56453727D01*
X72092794Y-56457327D01*
X72068290Y-56458531D01*
X71568290Y-56458531D01*
X71543786Y-56457327D01*
X71519517Y-56453727D01*
X71495719Y-56447766D01*
X71472619Y-56439501D01*
X71450441Y-56429011D01*
X71429397Y-56416398D01*
X71409692Y-56401784D01*
X71391513Y-56385308D01*
X71375037Y-56367129D01*
X71360423Y-56347424D01*
X71347810Y-56326380D01*
X71337320Y-56304202D01*
X71329055Y-56281102D01*
X71323094Y-56257304D01*
X71319494Y-56233035D01*
X71318290Y-56208531D01*
X71318290Y-55708531D01*
X71319494Y-55684027D01*
X71323094Y-55659758D01*
X71329055Y-55635960D01*
X71337320Y-55612860D01*
X71347810Y-55590682D01*
X71360423Y-55569638D01*
X71375037Y-55549933D01*
X71391513Y-55531754D01*
X71409692Y-55515278D01*
X71429397Y-55500664D01*
X71450441Y-55488051D01*
X71472619Y-55477561D01*
X71495719Y-55469296D01*
X71519517Y-55463335D01*
X71543786Y-55459735D01*
X71568290Y-55458531D01*
X72068290Y-55458531D01*
X72092794Y-55459735D01*
X72092794Y-55459735D01*
G37*
D11*
X71818290Y-55958531D03*
G04 #@! TD*
D10*
G04 #@! TO.C,VCC*
G36*
X73192794Y-55459735D02*
X73217063Y-55463335D01*
X73240861Y-55469296D01*
X73263961Y-55477561D01*
X73286139Y-55488051D01*
X73307183Y-55500664D01*
X73326888Y-55515278D01*
X73345067Y-55531754D01*
X73361543Y-55549933D01*
X73376157Y-55569638D01*
X73388770Y-55590682D01*
X73399260Y-55612860D01*
X73407525Y-55635960D01*
X73413486Y-55659758D01*
X73417086Y-55684027D01*
X73418290Y-55708531D01*
X73418290Y-56208531D01*
X73417086Y-56233035D01*
X73413486Y-56257304D01*
X73407525Y-56281102D01*
X73399260Y-56304202D01*
X73388770Y-56326380D01*
X73376157Y-56347424D01*
X73361543Y-56367129D01*
X73345067Y-56385308D01*
X73326888Y-56401784D01*
X73307183Y-56416398D01*
X73286139Y-56429011D01*
X73263961Y-56439501D01*
X73240861Y-56447766D01*
X73217063Y-56453727D01*
X73192794Y-56457327D01*
X73168290Y-56458531D01*
X72668290Y-56458531D01*
X72643786Y-56457327D01*
X72619517Y-56453727D01*
X72595719Y-56447766D01*
X72572619Y-56439501D01*
X72550441Y-56429011D01*
X72529397Y-56416398D01*
X72509692Y-56401784D01*
X72491513Y-56385308D01*
X72475037Y-56367129D01*
X72460423Y-56347424D01*
X72447810Y-56326380D01*
X72437320Y-56304202D01*
X72429055Y-56281102D01*
X72423094Y-56257304D01*
X72419494Y-56233035D01*
X72418290Y-56208531D01*
X72418290Y-55708531D01*
X72419494Y-55684027D01*
X72423094Y-55659758D01*
X72429055Y-55635960D01*
X72437320Y-55612860D01*
X72447810Y-55590682D01*
X72460423Y-55569638D01*
X72475037Y-55549933D01*
X72491513Y-55531754D01*
X72509692Y-55515278D01*
X72529397Y-55500664D01*
X72550441Y-55488051D01*
X72572619Y-55477561D01*
X72595719Y-55469296D01*
X72619517Y-55463335D01*
X72643786Y-55459735D01*
X72668290Y-55458531D01*
X73168290Y-55458531D01*
X73192794Y-55459735D01*
X73192794Y-55459735D01*
G37*
D11*
X72918290Y-55958531D03*
G04 #@! TD*
M02*
