G04 #@! TF.GenerationSoftware,KiCad,Pcbnew,(5.0.0)*
G04 #@! TF.CreationDate,2018-11-03T02:43:51+01:00*
G04 #@! TF.ProjectId,GBPrinter Emulator Minimal,47425072696E74657220456D756C6174,rev?*
G04 #@! TF.SameCoordinates,Original*
G04 #@! TF.FileFunction,Copper,L1,Top,Signal*
G04 #@! TF.FilePolarity,Positive*
%FSLAX46Y46*%
G04 Gerber Fmt 4.6, Leading zero omitted, Abs format (unit mm)*
G04 Created by KiCad (PCBNEW (5.0.0)) date 11/03/18 02:43:51*
%MOMM*%
%LPD*%
G01*
G04 APERTURE LIST*
G04 #@! TA.AperFunction,SMDPad,CuDef*
%ADD10R,3.000000X1.000000*%
G04 #@! TD*
G04 #@! TA.AperFunction,ConnectorPad*
%ADD11R,5.000000X1.000000*%
G04 #@! TD*
G04 #@! TA.AperFunction,ViaPad*
%ADD12C,0.600000*%
G04 #@! TD*
G04 #@! TA.AperFunction,Conductor*
%ADD13C,0.400000*%
G04 #@! TD*
G04 APERTURE END LIST*
D10*
G04 #@! TO.P,,8 - 3.3V*
G04 #@! TO.N,N/C*
X76762560Y-58498740D03*
G04 #@! TO.P,,10 - 5.0V*
X76762560Y-55958740D03*
G04 #@! TO.P,,2 - SWDIO*
X76762560Y-66118740D03*
G04 #@! TO.P,,6 - SWCLK*
X76762560Y-61038740D03*
G04 #@! TO.P,,4 - GND*
X76762560Y-63578740D03*
G04 #@! TD*
D11*
G04 #@! TO.P,GBLink,2 - SO*
G04 #@! TO.N,N/C*
X66189860Y-59039825D03*
G04 #@! TO.P,GBLink,6 - GND*
X66189860Y-63039825D03*
G04 #@! TO.P,GBLink,4 - SD*
X66189860Y-61039825D03*
G04 #@! TD*
D12*
G04 #@! TO.N,*
X75438000Y-59804300D03*
X69938900Y-65493900D03*
X69710300Y-61391800D03*
X70408800Y-59817000D03*
G04 #@! TD*
D13*
G04 #@! TO.N,*
X75762560Y-61038740D02*
X76762560Y-61038740D01*
X76762560Y-61038740D02*
X76762560Y-61121340D01*
X66190945Y-61038740D02*
X66189860Y-61039825D01*
X70563740Y-66118740D02*
X69938900Y-65493900D01*
X76762560Y-66118740D02*
X70563740Y-66118740D01*
X76672440Y-61038740D02*
X75438000Y-59804300D01*
X76762560Y-61038740D02*
X76672440Y-61038740D01*
X69710300Y-60967536D02*
X69710300Y-61391800D01*
X69710300Y-60560265D02*
X69710300Y-60967536D01*
X68189860Y-59039825D02*
X69710300Y-60560265D01*
X66189860Y-59039825D02*
X68189860Y-59039825D01*
X69089860Y-63039825D02*
X70235835Y-64185800D01*
X66189860Y-63039825D02*
X69089860Y-63039825D01*
X70235835Y-64185800D02*
X72821800Y-64185800D01*
X73428860Y-63578740D02*
X76762560Y-63578740D01*
X72821800Y-64185800D02*
X73428860Y-63578740D01*
X69710300Y-60515500D02*
X69710300Y-60560265D01*
X70408800Y-59817000D02*
X69710300Y-60515500D01*
G04 #@! TD*
M02*
