G04 #@! TF.GenerationSoftware,KiCad,Pcbnew,(5.0.0)*
G04 #@! TF.CreationDate,2018-11-03T02:43:51+01:00*
G04 #@! TF.ProjectId,GBPrinter Emulator Minimal,47425072696E74657220456D756C6174,rev?*
G04 #@! TF.SameCoordinates,Original*
G04 #@! TF.FileFunction,Legend,Top*
G04 #@! TF.FilePolarity,Positive*
%FSLAX46Y46*%
G04 Gerber Fmt 4.6, Leading zero omitted, Abs format (unit mm)*
G04 Created by KiCad (PCBNEW (5.0.0)) date 11/03/18 02:43:51*
%MOMM*%
%LPD*%
G01*
G04 APERTURE LIST*
%ADD10C,0.300000*%
%ADD11C,0.150000*%
G04 APERTURE END LIST*
D10*
X70436028Y-66870971D02*
X70436028Y-65370971D01*
X70436028Y-66085257D02*
X71293171Y-66085257D01*
X71293171Y-66870971D02*
X71293171Y-65370971D01*
X72007457Y-66870971D02*
X72007457Y-65370971D01*
X72364600Y-65370971D01*
X72578885Y-65442400D01*
X72721742Y-65585257D01*
X72793171Y-65728114D01*
X72864600Y-66013828D01*
X72864600Y-66228114D01*
X72793171Y-66513828D01*
X72721742Y-66656685D01*
X72578885Y-66799542D01*
X72364600Y-66870971D01*
X72007457Y-66870971D01*
X74364600Y-66870971D02*
X73864600Y-66156685D01*
X73507457Y-66870971D02*
X73507457Y-65370971D01*
X74078885Y-65370971D01*
X74221742Y-65442400D01*
X74293171Y-65513828D01*
X74364600Y-65656685D01*
X74364600Y-65870971D01*
X74293171Y-66013828D01*
X74221742Y-66085257D01*
X74078885Y-66156685D01*
X73507457Y-66156685D01*
X70040785Y-55426871D02*
X70540785Y-56926871D01*
X71040785Y-55426871D01*
X72326500Y-56926871D02*
X71469357Y-56926871D01*
X71897928Y-56926871D02*
X71897928Y-55426871D01*
X71755071Y-55641157D01*
X71612214Y-55784014D01*
X71469357Y-55855442D01*
X72969357Y-56784014D02*
X73040785Y-56855442D01*
X72969357Y-56926871D01*
X72897928Y-56855442D01*
X72969357Y-56784014D01*
X72969357Y-56926871D01*
X73540785Y-55426871D02*
X74469357Y-55426871D01*
X73969357Y-55998300D01*
X74183642Y-55998300D01*
X74326500Y-56069728D01*
X74397928Y-56141157D01*
X74469357Y-56284014D01*
X74469357Y-56641157D01*
X74397928Y-56784014D01*
X74326500Y-56855442D01*
X74183642Y-56926871D01*
X73755071Y-56926871D01*
X73612214Y-56855442D01*
X73540785Y-56784014D01*
G04 #@! TO.C,*
D11*
G04 #@! TD*
M02*
